<svg width="28" height="30" viewBox="0 0 28 30" fill="none" xmlns="http://www.w3.org/2000/svg">
<path d="M13.6909 3.40909L10.2682 6.81818H17.0864L13.6909 3.40909ZM2.72727 9.54545V27.2727H24.5455V9.54545H2.72727ZM13.6364 0L20.4545 6.81818H24.5455C25.2688 6.81818 25.9625 7.10552 26.4739 7.61698C26.9854 8.12844 27.2727 8.82214 27.2727 9.54545V27.2727C27.2727 27.996 26.9854 28.6897 26.4739 29.2012C25.9625 29.7127 25.2688 30 24.5455 30H2.72727C2.00396 30 1.31026 29.7127 0.7988 29.2012C0.287337 28.6897 0 27.996 0 27.2727V9.54545C0 8.82214 0.287337 8.12844 0.7988 7.61698C1.31026 7.10552 2.00396 6.81818 2.72727 6.81818H6.81818L13.6364 0ZM6.81818 24.5455V19.0909H13.6364V24.5455H6.81818ZM16.3636 23.1818V13.6364H21.8182V23.1818H16.3636ZM5.45455 16.3636V12.2727H12.2727V16.3636H5.45455Z" fill="black"/>
</svg>
