<svg width="32" height="32" viewBox="0 0 32 32" fill="none" xmlns="http://www.w3.org/2000/svg">
    <path d="M11.8887 4.76169C12.1736 3.95415 12.702 3.25487 13.4011 2.76025C14.1001 2.26562 14.9353 2 15.7917 2C16.648 2 17.4833 2.26562 18.1823 2.76025C18.8813 3.25487 19.4098 3.95415 19.6947 4.76169" stroke="#545454" stroke-width="3" stroke-linecap="round"/>
    <path d="M15.7915 29.9313C15.5172 29.9313 15.2541 30.0402 15.0601 30.2342C14.8661 30.4282 14.7571 30.6913 14.7571 30.9656C14.7571 31.24 14.8661 31.503 15.0601 31.697C15.2541 31.891 15.5172 32 15.7915 32V29.9313ZM10.2128 31.909C10.3485 31.9171 10.4844 31.8985 10.6128 31.8541C10.7413 31.8097 10.8597 31.7405 10.9614 31.6503C11.0631 31.5601 11.146 31.4508 11.2055 31.3286C11.2649 31.2064 11.2997 31.0737 11.3079 30.938C11.316 30.8024 11.2974 30.6665 11.253 30.538C11.2086 30.4096 11.1393 30.2911 11.0492 30.1894C10.959 30.0877 10.8497 30.0048 10.7275 29.9454C10.6053 29.8859 10.4726 29.8511 10.3369 29.843L10.2128 31.909ZM2.34473 17.1741C2.34473 19.7586 2.34473 22.4562 2.5778 24.7125C2.69503 25.8434 2.87432 26.904 3.15981 27.8074C3.43978 28.6983 3.85352 29.5396 4.51 30.123L5.88364 28.5769C5.63125 28.3521 5.3637 27.9177 5.132 27.1867C4.90582 26.4696 4.74584 25.5621 4.6355 24.5001C4.41484 22.3721 4.41346 19.7903 4.41346 17.1741H2.34473ZM15.7915 32C18.6905 32 20.9578 32.0014 22.7245 31.7904C24.5077 31.578 25.9379 31.1325 27.073 30.123L25.6993 28.5769C25.0167 29.1838 24.0747 29.5465 22.479 29.7354C20.8654 29.9285 18.7429 29.9313 15.7915 29.9313V32ZM10.3369 29.843C7.97306 29.7009 6.7332 29.3313 5.88364 28.5769L4.51 30.123C5.91122 31.3683 7.76894 31.7614 10.2128 31.909L10.3369 29.843ZM27.1695 17.7078C27.1695 20.2344 27.1516 22.6948 26.924 24.7139C26.8109 25.7221 26.6482 26.5799 26.4275 27.2585C26.2014 27.948 25.9421 28.3604 25.6993 28.5769L27.073 30.123C27.7074 29.5589 28.1142 28.7535 28.3928 27.9025C28.6769 27.0364 28.859 26.0241 28.9803 24.9456C29.2231 22.7914 29.2369 20.2123 29.2383 17.7092L27.1695 17.7078Z" fill="#545454"/>
    <path d="M19.4601 19.9324L23.6031 18.8525M12.123 19.9324L3.83703 17.7713C3.01644 17.5575 2.60545 17.4499 2.34479 17.1934C2.29479 17.1437 2.24869 17.0902 2.20687 17.0334C2 16.7438 2 16.3701 2 15.6239C2 12.6863 2 11.2175 2.92817 10.2259C3.10746 10.0356 3.30698 9.86228 3.52672 9.70598C4.66729 8.89917 6.35675 8.89917 9.73568 8.89917H21.8474C25.2263 8.89917 26.9158 8.89917 28.0564 9.70598C28.277 9.86228 28.4766 10.0356 28.6549 10.2259C29.5831 11.2189 29.5831 12.6863 29.5831 15.6239C29.5831 16.3687 29.5831 16.7424 29.3762 17.0334C29.3344 17.0902 29.2883 17.1437 29.2383 17.1934C29.0314 17.3975 28.7294 17.5065 28.2039 17.6499" stroke="#545454" stroke-width="3" stroke-linecap="round"/>
    <path d="M18.5499 17.8636H13.0333C12.8504 17.8636 12.675 17.9363 12.5457 18.0656C12.4164 18.1949 12.3438 18.3703 12.3438 18.5532V21.535C12.3438 21.6727 12.385 21.8072 12.4622 21.9213C12.5394 22.0353 12.649 22.1237 12.7768 22.1749L13.7422 22.561C15.0578 23.0875 16.5255 23.0875 17.8411 22.561L18.8065 22.1749C18.9345 22.1236 19.0442 22.035 19.1214 21.9207C19.1986 21.8064 19.2398 21.6715 19.2395 21.5336V18.5532C19.2395 18.3703 19.1669 18.1949 19.0376 18.0656C18.9082 17.9363 18.7328 17.8636 18.5499 17.8636Z" stroke="#545454" stroke-width="3" stroke-linecap="round"/>
</svg>
