<svg width="32" height="32" viewBox="0 0 32 32" fill="none" xmlns="http://www.w3.org/2000/svg">
<path d="M11.8886 4.76169C12.1735 3.95415 12.702 3.25487 13.401 2.76025C14.1 2.26562 14.9353 2 15.7916 2C16.648 2 17.4832 2.26562 18.1822 2.76025C18.8813 3.25487 19.4097 3.95415 19.6946 4.76169" fill="#545454"/>
<path d="M11.8886 4.76169C12.1735 3.95415 12.702 3.25487 13.401 2.76025C14.1 2.26562 14.9353 2 15.7916 2C16.648 2 17.4832 2.26562 18.1822 2.76025C18.8813 3.25487 19.4097 3.95415 19.6946 4.76169" stroke="black" stroke-width="3" stroke-linecap="round"/>
<mask id="path-3-inside-1_5_18" fill="white">
<path d="M15.7915 29.9313C15.5172 29.9313 15.2541 30.0402 15.0601 30.2342C14.8662 30.4282 14.7572 30.6913 14.7572 30.9656C14.7572 31.24 14.8662 31.503 15.0601 31.697C15.2541 31.891 15.5172 32 15.7915 32V29.9313ZM10.2129 31.909C10.3485 31.9171 10.4845 31.8985 10.6129 31.8541C10.7413 31.8097 10.8598 31.7405 10.9615 31.6503C11.0632 31.5601 11.1461 31.4508 11.2055 31.3286C11.265 31.2064 11.2998 31.0737 11.3079 30.938C11.3161 30.8024 11.2974 30.6665 11.253 30.538C11.2087 30.4096 11.1394 30.2911 11.0492 30.1894C10.9591 30.0877 10.8498 30.0048 10.7276 29.9454C10.6054 29.8859 10.4726 29.8511 10.337 29.843L10.2129 31.909ZM2.34479 17.1741C2.34479 19.7586 2.34479 22.4562 2.57786 24.7125C2.69509 25.8434 2.87438 26.904 3.15987 27.8074C3.43984 28.6983 3.85358 29.5396 4.51006 30.123L5.8837 28.5769C5.63131 28.3521 5.36376 27.9177 5.13206 27.1867C4.90588 26.4696 4.7459 25.5621 4.63556 24.5001C4.4149 22.3721 4.41352 19.7903 4.41352 17.1741H2.34479ZM15.7915 32C18.6905 32 20.9579 32.0014 22.7246 31.7904C24.5078 31.578 25.938 31.1325 27.073 30.123L25.6994 28.5769C25.0167 29.1838 24.0748 29.5465 22.4791 29.7354C20.8655 29.9285 18.7429 29.9313 15.7915 29.9313V32ZM10.337 29.843C7.97312 29.7009 6.73326 29.3313 5.8837 28.5769L4.51006 30.123C5.91128 31.3683 7.769 31.7614 10.2129 31.909L10.337 29.843ZM27.1696 17.7078C27.1696 20.2344 27.1516 22.6948 26.9241 24.7139C26.811 25.7221 26.6483 26.5799 26.4276 27.2585C26.2014 27.948 25.9421 28.3604 25.6994 28.5769L27.073 30.123C27.7074 29.5589 28.1143 28.7535 28.3929 27.9025C28.677 27.0364 28.859 26.0241 28.9804 24.9456C29.2231 22.7914 29.2369 20.2123 29.2383 17.7092L27.1696 17.7078Z"/>
</mask>
<path d="M15.7915 29.9313C15.5172 29.9313 15.2541 30.0402 15.0601 30.2342C14.8662 30.4282 14.7572 30.6913 14.7572 30.9656C14.7572 31.24 14.8662 31.503 15.0601 31.697C15.2541 31.891 15.5172 32 15.7915 32V29.9313ZM10.2129 31.909C10.3485 31.9171 10.4845 31.8985 10.6129 31.8541C10.7413 31.8097 10.8598 31.7405 10.9615 31.6503C11.0632 31.5601 11.1461 31.4508 11.2055 31.3286C11.265 31.2064 11.2998 31.0737 11.3079 30.938C11.3161 30.8024 11.2974 30.6665 11.253 30.538C11.2087 30.4096 11.1394 30.2911 11.0492 30.1894C10.9591 30.0877 10.8498 30.0048 10.7276 29.9454C10.6054 29.8859 10.4726 29.8511 10.337 29.843L10.2129 31.909ZM2.34479 17.1741C2.34479 19.7586 2.34479 22.4562 2.57786 24.7125C2.69509 25.8434 2.87438 26.904 3.15987 27.8074C3.43984 28.6983 3.85358 29.5396 4.51006 30.123L5.8837 28.5769C5.63131 28.3521 5.36376 27.9177 5.13206 27.1867C4.90588 26.4696 4.7459 25.5621 4.63556 24.5001C4.4149 22.3721 4.41352 19.7903 4.41352 17.1741H2.34479ZM15.7915 32C18.6905 32 20.9579 32.0014 22.7246 31.7904C24.5078 31.578 25.938 31.1325 27.073 30.123L25.6994 28.5769C25.0167 29.1838 24.0748 29.5465 22.4791 29.7354C20.8655 29.9285 18.7429 29.9313 15.7915 29.9313V32ZM10.337 29.843C7.97312 29.7009 6.73326 29.3313 5.8837 28.5769L4.51006 30.123C5.91128 31.3683 7.769 31.7614 10.2129 31.909L10.337 29.843ZM27.1696 17.7078C27.1696 20.2344 27.1516 22.6948 26.9241 24.7139C26.811 25.7221 26.6483 26.5799 26.4276 27.2585C26.2014 27.948 25.9421 28.3604 25.6994 28.5769L27.073 30.123C27.7074 29.5589 28.1143 28.7535 28.3929 27.9025C28.677 27.0364 28.859 26.0241 28.9804 24.9456C29.2231 22.7914 29.2369 20.2123 29.2383 17.7092L27.1696 17.7078Z" fill="#545454"/>
<path d="M5.8837 28.5769L7.00503 29.5732L4.76281 27.5801L5.8837 28.5769ZM25.6994 28.5769L26.8203 27.5801L24.5781 29.5732L25.6994 28.5769ZM17.2915 32V29.9313H14.2915V32H17.2915ZM6.31777 30.346L7.00459 29.5737L4.76281 27.5801L4.07599 28.3525L6.31777 30.346ZM27.5071 28.3525L26.8203 27.5801L24.5785 29.5737L25.2653 30.346L27.5071 28.3525ZM8.83969 29.753L8.71557 31.819L11.7102 31.9989L11.8343 29.9329L8.83969 29.753ZM5.6314 31.1193L7.00503 29.5732L4.76236 27.5806L3.38873 29.1267L5.6314 31.1193ZM28.1944 29.1267L26.8207 27.5806L24.5781 29.5732L25.9517 31.1193L28.1944 29.1267ZM5.8837 28.5769L3.88833 30.8171L3.89174 30.8202L5.8837 28.5769ZM25.6994 28.5769L27.6925 30.8192L27.6964 30.8156L25.6994 28.5769ZM10.2129 31.909L10.032 34.9035L10.033 34.9036L10.2129 31.909ZM10.337 29.843L10.157 32.8376L10.1571 32.8376L10.337 29.843ZM2.34479 17.1741V14.1741H-0.655212V17.1741H2.34479ZM2.57786 24.7125L-0.406256 25.0208L-0.406147 25.0219L2.57786 24.7125ZM3.15987 27.8074L6.02189 26.908L6.02042 26.9033L3.15987 27.8074ZM4.51006 30.123L6.50302 27.8806L6.50286 27.8805L4.51006 30.123ZM5.13206 27.1867L2.27098 28.0891L2.27229 28.0932L5.13206 27.1867ZM4.63556 24.5001L1.65156 24.8096L1.65163 24.8102L4.63556 24.5001ZM4.41352 17.1741H7.41352V14.1741H4.41352V17.1741ZM22.7246 31.7904L22.3698 28.8114L22.3688 28.8115L22.7246 31.7904ZM27.073 30.123L25.0796 27.881L25.0793 27.8813L27.073 30.123ZM22.4791 29.7354L22.1263 26.7562L22.1226 26.7567L22.4791 29.7354ZM27.1696 17.7078L27.1716 14.7078L24.1696 14.7058V17.7078H27.1696ZM26.9241 24.7139L23.943 24.3779L23.9428 24.3795L26.9241 24.7139ZM26.4276 27.2585L29.2782 28.1934L29.2805 28.1862L26.4276 27.2585ZM28.3929 27.9025L25.5423 26.9675L25.5418 26.9691L28.3929 27.9025ZM28.9804 24.9456L25.9993 24.6097L25.9992 24.6101L28.9804 24.9456ZM29.2383 17.7092L32.2383 17.7108L32.24 14.7112L29.2403 14.7092L29.2383 17.7092ZM15.7915 26.9313C14.7216 26.9313 13.6954 27.3563 12.9388 28.1129L17.1815 32.3555C16.8128 32.7242 16.3129 32.9313 15.7915 32.9313V26.9313ZM12.9388 28.1129C12.1822 28.8695 11.7572 29.8956 11.7572 30.9656H17.7572C17.7572 31.4869 17.5501 31.9869 17.1815 32.3555L12.9388 28.1129ZM11.7572 30.9656C11.7572 32.0356 12.1822 33.0618 12.9388 33.8183L17.1815 29.5757C17.5501 29.9443 17.7572 30.4443 17.7572 30.9656H11.7572ZM12.9388 33.8183C13.6954 34.5749 14.7216 35 15.7915 35V29C16.3129 29 16.8128 29.2071 17.1815 29.5757L12.9388 33.8183ZM10.033 34.9036C10.5619 34.9353 11.0918 34.8626 11.5927 34.6896L9.63313 29.0186C9.87706 28.9343 10.1352 28.8989 10.3928 28.9144L10.033 34.9036ZM11.5927 34.6896C12.0935 34.5165 12.5553 34.2465 12.9518 33.895L8.97119 29.4056C9.16428 29.2344 9.38921 29.1029 9.63313 29.0186L11.5927 34.6896ZM12.9518 33.895C13.3482 33.5435 13.6716 33.1173 13.9033 32.6408L8.50774 30.0164C8.62062 29.7843 8.7781 29.5768 8.97119 29.4056L12.9518 33.895ZM13.9033 32.6408C14.1351 32.1643 14.2707 31.6469 14.3025 31.118L8.31332 30.7581C8.32879 30.5005 8.39485 30.2485 8.50774 30.0164L13.9033 32.6408ZM14.3025 31.118C14.3343 30.5891 14.2616 30.0591 14.0885 29.5582L8.41753 31.5178C8.33325 31.2738 8.29784 31.0157 8.31332 30.7581L14.3025 31.118ZM14.0885 29.5582C13.9155 29.0574 13.6455 28.5956 13.294 28.1991L8.80452 32.1797C8.63332 31.9866 8.50182 31.7617 8.41753 31.5178L14.0885 29.5582ZM13.294 28.1991C12.9424 27.8027 12.5163 27.4793 12.0398 27.2476L9.41537 32.6432C9.1833 32.5303 8.97573 32.3728 8.80452 32.1797L13.294 28.1991ZM12.0398 27.2476C11.5633 27.0158 11.0458 26.8802 10.5169 26.8484L10.1571 32.8376C9.89949 32.8221 9.64746 32.7561 9.41537 32.6432L12.0398 27.2476ZM-0.655212 17.1741C-0.655212 19.7146 -0.658433 22.5796 -0.406256 25.0208L5.56199 24.4043C5.34801 22.3329 5.34479 19.8026 5.34479 17.1741H-0.655212ZM-0.406147 25.0219C-0.278854 26.2498 -0.0725126 27.5348 0.299319 28.7114L6.02042 26.9033C5.82128 26.2732 5.66904 25.437 5.56188 24.4032L-0.406147 25.0219ZM0.297851 28.7067C0.650579 29.8292 1.27737 31.2636 2.51726 32.3654L6.50286 27.8805C6.42979 27.8155 6.22909 27.5674 6.02189 26.908L0.297851 28.7067ZM7.87907 26.3367C7.97628 26.4233 8.03899 26.4978 8.07349 26.5428C8.10833 26.5882 8.12191 26.6135 8.11922 26.6087C8.11678 26.6043 8.10207 26.5771 8.07867 26.5213C8.0554 26.4658 8.02559 26.3867 7.99183 26.2802L2.27229 28.0932C2.57493 29.048 3.05425 30.0742 3.88833 30.8171L7.87907 26.3367ZM7.99314 26.2844C7.85321 25.8407 7.72002 25.1576 7.6195 24.1901L1.65163 24.8102C1.77177 25.9666 1.95854 27.0984 2.27098 28.0891L7.99314 26.2844ZM7.61956 24.1907C7.4182 22.2488 7.41352 19.8364 7.41352 17.1741H1.41352C1.41352 19.7442 1.4116 22.4954 1.65156 24.8096L7.61956 24.1907ZM4.41352 14.1741H2.34479V20.1741H4.41352V14.1741ZM15.7915 35C18.6164 35 21.0945 35.0064 23.0803 34.7692L22.3688 28.8115C20.8213 28.9964 18.7647 29 15.7915 29V35ZM23.0794 34.7693C25.1365 34.5243 27.2736 33.9595 29.0668 32.3646L25.0793 27.8813C24.6024 28.3055 23.8791 28.6316 22.3698 28.8114L23.0794 34.7693ZM23.7063 26.3347C23.6814 26.3568 23.4459 26.6 22.1263 26.7562L22.8318 32.7146C24.7036 32.493 26.352 32.0107 27.6925 30.8192L23.7063 26.3347ZM22.1226 26.7567C20.7288 26.9234 18.8181 26.9313 15.7915 26.9313V32.9313C18.6678 32.9313 21.0021 32.9335 22.8355 32.7142L22.1226 26.7567ZM10.5169 26.8484C8.26819 26.7133 7.9233 26.376 7.87566 26.3337L3.89174 30.8202C5.54322 32.2866 7.67805 32.6886 10.157 32.8376L10.5169 26.8484ZM2.51711 32.3653C4.71907 34.3224 7.47026 34.7488 10.032 34.9035L10.3937 28.9144C8.06774 28.774 7.10349 28.4143 6.50302 27.8806L2.51711 32.3653ZM24.1696 17.7078C24.1696 20.2641 24.1485 22.5547 23.943 24.3779L29.9052 25.0499C30.1548 22.835 30.1696 20.2048 30.1696 17.7078H24.1696ZM23.9428 24.3795C23.8416 25.2819 23.7085 25.9191 23.5747 26.3307L29.2805 28.1862C29.588 27.2407 29.7804 26.1623 29.9054 25.0483L23.9428 24.3795ZM23.577 26.3235C23.5456 26.4193 23.5182 26.4895 23.4975 26.5377C23.4872 26.5615 23.4789 26.5791 23.473 26.591C23.4671 26.6029 23.4639 26.6085 23.464 26.6085C23.464 26.6084 23.4649 26.6068 23.4667 26.6038C23.4686 26.6008 23.4714 26.5963 23.4753 26.5904C23.4831 26.5786 23.4956 26.5606 23.5135 26.5376C23.5483 26.4928 23.6094 26.4212 23.7024 26.3382L27.6964 30.8156C28.5011 30.0978 28.9752 29.117 29.2782 28.1934L23.577 26.3235ZM29.0664 32.3649C30.2664 31.2979 30.8888 29.9209 31.244 28.8359L25.5418 26.9691C25.3398 27.586 25.1485 27.8198 25.0796 27.881L29.0664 32.3649ZM31.2434 28.8376C31.6171 27.6985 31.8288 26.4612 31.9616 25.2811L25.9992 24.6101C25.8893 25.587 25.7369 26.3743 25.5423 26.9675L31.2434 28.8376ZM31.9615 25.2815C32.2263 22.9314 32.2369 20.1812 32.2383 17.7108L26.2383 17.7075C26.2369 20.2435 26.2199 22.6514 25.9993 24.6097L31.9615 25.2815ZM29.2403 14.7092L27.1716 14.7078L27.1676 20.7078L29.2363 20.7092L29.2403 14.7092Z" fill="black" mask="url(#path-3-inside-1_5_18)"/>
<path d="M19.4601 19.9324L23.6031 18.8525L19.4601 19.9324ZM12.123 19.9324L3.83703 17.7713C3.01644 17.5575 2.60545 17.4499 2.34479 17.1934C2.29479 17.1437 2.24869 17.0902 2.20687 17.0334C2 16.7438 2 16.3701 2 15.6239C2 12.6863 2 11.2175 2.92817 10.2259C3.10746 10.0356 3.30698 9.86228 3.52672 9.70598C4.66729 8.89917 6.35675 8.89917 9.73568 8.89917H21.8474C25.2263 8.89917 26.9158 8.89917 28.0564 9.70598C28.277 9.86228 28.4766 10.0356 28.6549 10.2259C29.5831 11.2189 29.5831 12.6863 29.5831 15.6239C29.5831 16.3687 29.5831 16.7424 29.3762 17.0334C29.3344 17.0902 29.2883 17.1437 29.2383 17.1934C29.0314 17.3975 28.7294 17.5065 28.2039 17.6499" fill="#545454"/>
<path d="M19.4601 19.9324L23.6031 18.8525M12.123 19.9324L3.83703 17.7713C3.01644 17.5575 2.60545 17.4499 2.34479 17.1934C2.29479 17.1437 2.24869 17.0902 2.20687 17.0334C2 16.7438 2 16.3701 2 15.6239C2 12.6863 2 11.2175 2.92817 10.2259C3.10746 10.0356 3.30698 9.86228 3.52672 9.70598C4.66729 8.89917 6.35675 8.89917 9.73568 8.89917H21.8474C25.2263 8.89917 26.9158 8.89917 28.0564 9.70598C28.277 9.86228 28.4766 10.0356 28.6549 10.2259C29.5831 11.2189 29.5831 12.6863 29.5831 15.6239C29.5831 16.3687 29.5831 16.7424 29.3762 17.0334C29.3344 17.0902 29.2883 17.1437 29.2383 17.1934C29.0314 17.3975 28.7294 17.5065 28.2039 17.6499" stroke="black" stroke-width="3" stroke-linecap="round"/>
<path d="M18.5499 17.8636H13.0333C12.8504 17.8636 12.675 17.9363 12.5457 18.0656C12.4163 18.1949 12.3437 18.3703 12.3437 18.5532V21.535C12.3437 21.6727 12.385 21.8072 12.4622 21.9213C12.5394 22.0353 12.6489 22.1237 12.7767 22.1749L13.7422 22.561C15.0577 23.0875 16.5254 23.0875 17.841 22.561L18.8064 22.1749C18.9345 22.1236 19.0442 22.035 19.1214 21.9207C19.1986 21.8064 19.2397 21.6715 19.2395 21.5336V18.5532C19.2395 18.3703 19.1668 18.1949 19.0375 18.0656C18.9082 17.9363 18.7328 17.8636 18.5499 17.8636Z" fill="#545454" stroke="black" stroke-width="3" stroke-linecap="round"/>
</svg>
