<svg width="25" height="25" viewBox="0 0 25 25" fill="none" xmlns="http://www.w3.org/2000/svg">
<path fill-rule="evenodd" clip-rule="evenodd" d="M21.2498 2.37615V6.24206C21.7423 6.24206 22.23 6.3341 22.685 6.51294C23.14 6.69178 23.5534 6.95391 23.9016 7.28437C24.2498 7.61482 24.5261 8.00713 24.7145 8.43888C24.903 8.87064 25 9.3334 25 9.80073C25 10.2681 24.903 10.7308 24.7145 11.1626C24.5261 11.5943 24.2498 11.9866 23.9016 12.3171C23.5534 12.6475 23.14 12.9097 22.685 13.0885C22.23 13.2674 21.7423 13.3594 21.2498 13.3594V16.9181C21.2498 18.873 18.8985 19.9892 17.2497 18.816L14.6746 16.9821C13.2981 16.0028 11.6954 15.3489 9.9994 15.0747V18.4483C9.99953 19.2238 9.70425 19.9732 9.16799 20.5583C8.63172 21.1435 7.89063 21.525 7.0813 21.6325C6.27198 21.74 5.44899 21.5662 4.76404 21.1432C4.07909 20.7203 3.57835 20.0766 3.35413 19.3309L1.39155 12.8114C0.685298 12.0199 0.225678 11.0572 0.0643591 10.0315C-0.09696 9.00572 0.0464167 7.95762 0.478373 7.00496C0.910328 6.05231 1.61374 5.23287 2.50954 4.63875C3.40533 4.04464 4.458 3.6994 5.54922 3.64185L9.32187 3.44257C11.1678 3.34528 12.9629 2.83342 14.5596 1.94911L17.4897 0.326359C19.1573 -0.595336 21.2498 0.544625 21.2498 2.37615ZM4.54168 14.6381L5.75798 18.6796C5.81651 18.8752 5.94766 19.0442 6.12721 19.1552C6.30676 19.2662 6.52257 19.3118 6.73481 19.2837C6.94704 19.2555 7.14136 19.1553 7.28187 19.0018C7.42239 18.8483 7.49962 18.6517 7.4993 18.4483V14.8778L5.54922 14.7746C5.21002 14.7552 4.87306 14.7095 4.54168 14.6381ZM18.7497 2.37615L15.8184 4.00009C14.0382 4.98669 12.0521 5.59159 9.9994 5.77231V12.6749C12.2332 12.9668 14.3596 13.7936 16.1746 15.0842L18.7497 16.9181V2.37615ZM7.4993 5.91466L5.68673 6.00956C4.8435 6.05374 4.04837 6.39629 3.45828 6.96959C2.8682 7.5429 2.52604 8.30529 2.49935 9.10628C2.47266 9.90727 2.76339 10.6887 3.31413 11.2962C3.86487 11.9037 4.63562 12.2932 5.47422 12.3879L5.68673 12.4057L7.4993 12.5006V5.91466ZM21.2498 8.6145V10.987C21.5685 10.9866 21.8749 10.8708 22.1066 10.6633C22.3383 10.4557 22.4777 10.1721 22.4964 9.87025C22.515 9.56842 22.4116 9.27122 22.2071 9.03937C22.0026 8.80752 21.7125 8.65852 21.3961 8.62281L21.2498 8.6145Z" fill="#545454"/>
</svg>
